<?xml version="1.0" encoding="utf-8"?>
<!-- Generator: Adobe Illustrator 18.0.0, SVG Export Plug-In . SVG Version: 6.00 Build 0)  -->
<!DOCTYPE svg PUBLIC "-//W3C//DTD SVG 1.1//EN" "http://www.w3.org/Graphics/SVG/1.1/DTD/svg11.dtd">
<svg version="1.1" id="Layer_1" xmlns="http://www.w3.org/2000/svg" xmlns:xlink="http://www.w3.org/1999/xlink" x="0px" y="0px"
	 viewBox="335.5 336.5 500 146.2" enable-background="new 335.5 336.5 500 146.2" xml:space="preserve">
<g>
	<g>
		<path fill="#12B3D3" d="M755.5,395.7v8.6h-11.8v36.4h-10.4v-36.4h-5.7v-8.7h5.7v-3.3c0-10,5-14.9,13.9-14.9c3.6,0,6.1,0.5,8.4,1.2
			v8.8c-2.1-0.7-3.9-1.1-6.1-1.1c-3.9,0-6,2.1-6,6.9v2.5L755.5,395.7L755.5,395.7z"/>
		<path fill="#12B3D3" d="M814.7,394.4c9.8,0,15.8,6.3,15.8,17.4v29h-10.4V415c0-7.2-3.3-11.1-9.2-11.1c-5.7,0-9.7,4-9.7,11.3v25.6
			H791v-25.9c0-7-3.4-11-9.2-11c-5.7,0-9.7,4.3-9.7,11.3v25.5h-10.4v-45.4h10.4v6.9c2.9-4,6.9-7.8,13.8-7.8c6.5,0,11,3.2,13.4,8
			C803,397.6,807.8,394.4,814.7,394.4z"/>
	</g>
	<g>
		<path fill="#265D7C" d="M527.8,441.8c-17.5,0-30.5-13.7-30.5-31c0-17.2,12.8-31.2,30.9-31.2c11,0,17.7,3.9,23.5,9.4l-6.8,7.8
			c-4.8-4.5-9.9-7.5-16.8-7.5c-11.5,0-19.8,9.5-19.8,21.3c0,11.9,8.3,21.5,19.8,21.5c7.4,0,12.1-3,17.2-7.8l6.8,6.9
			C545.9,437.6,539,441.8,527.8,441.8z"/>
		<path fill="#265D7C" d="M558.6,440.7V378h10.4v62.8H558.6z"/>
		<path fill="#265D7C" d="M599.7,441.8c-13.8,0-24-10.6-24-23.6c0-13.1,10.3-23.8,24.2-23.8c13.9,0,24.1,10.6,24.1,23.6
			C623.9,431,613.7,441.8,599.7,441.8z M599.7,403.5c-8.3,0-13.6,6.5-13.6,14.5c0,8.1,5.7,14.7,13.8,14.7c8.4,0,13.7-6.5,13.7-14.5
			C613.6,410.1,607.8,403.5,599.7,403.5z"/>
		<path fill="#265D7C" d="M659.5,395.4h10.4v45.4h-10.4v-7c-2.9,4.3-7.1,8-14.1,8c-10.2,0-16.1-6.9-16.1-17.5v-28.9h10.4v25.8
			c0,7,3.5,11.1,9.7,11.1c6,0,10.2-4.2,10.2-11.3L659.5,395.4L659.5,395.4z"/>
		<path fill="#265D7C" d="M711.4,440.7v-7.6c-3.3,4.7-8.1,8.5-15.4,8.5c-10.6,0-21-8.5-21-23.6s10.2-23.6,21-23.6
			c7.5,0,12.2,3.8,15.4,8V378h10.4v62.8H711.4z M698.5,403.4c-7.1,0-13,5.5-13,14.6c0,8.9,6,14.6,13,14.6c6.9,0,13.1-5.8,13.1-14.6
			S705.4,403.4,698.5,403.4z"/>
	</g>
	
		<linearGradient id="SVGID_1_" gradientUnits="userSpaceOnUse" x1="452.0451" y1="484.4533" x2="364.6526" y2="380.303" gradientTransform="matrix(1 0 0 -1 0 842)">
		<stop  offset="0" style="stop-color:#74CDDE"/>
		<stop  offset="0.5" style="stop-color:#12B3D3"/>
		<stop  offset="1" style="stop-color:#265D7C"/>
	</linearGradient>
	<path fill="url(#SVGID_1_)" d="M471.7,385.2c-4.6-12-12.5-22.4-22.6-30c-15.3,0.4-74.4,6.7-104,78.9c4.6,12,12.5,22.4,22.6,30
		C382.9,463.7,442,457.3,471.7,385.2z"/>
	
		<linearGradient id="SVGID_2_" gradientUnits="userSpaceOnUse" x1="424.193" y1="507.8405" x2="336.8941" y2="403.8017" gradientTransform="matrix(1 0 0 -1 0 842)">
		<stop  offset="0" style="stop-color:#74CDDE"/>
		<stop  offset="0.5" style="stop-color:#12B3D3"/>
		<stop  offset="1" style="stop-color:#265D7C"/>
	</linearGradient>
	<path fill="url(#SVGID_2_)" d="M448.3,354.6c-11.2-8.2-25-13-39.9-13c-30.9,0-56.9,20.7-65.1,49
		C361.1,372.1,394.9,348.1,448.3,354.6z"/>
	
		<linearGradient id="SVGID_3_" gradientUnits="userSpaceOnUse" x1="479.8039" y1="460.9547" x2="392.5049" y2="356.9157" gradientTransform="matrix(1 0 0 -1 0 842)">
		<stop  offset="0" style="stop-color:#74CDDE"/>
		<stop  offset="0.5" style="stop-color:#12B3D3"/>
		<stop  offset="1" style="stop-color:#265D7C"/>
	</linearGradient>
	<path fill="url(#SVGID_3_)" d="M368.4,464.7c11.2,8.2,25,13,39.9,13c30.9,0,56.9-20.7,65.1-49C455.6,447.2,421.8,471.2,368.4,464.7
		z"/>
	<path fill="#FFFFFF" d="M449.1,355.2c-0.3-0.2-0.5-0.4-0.8-0.6c-53.3-6.5-87.2,17.5-105,36c-1.8,6.1-2.7,12.4-2.7,19.1
		c0,8.6,1.6,16.8,4.5,24.4C374.7,361.9,433.8,355.6,449.1,355.2z"/>
	<path fill="#FFFFFF" d="M473.5,428.7c1.8-6.1,2.7-12.4,2.7-19.1c0-8.6-1.6-16.8-4.5-24.4c-29.7,72.1-88.7,78.5-104,78.9
		c0.3,0.2,0.5,0.4,0.8,0.6C421.8,471.2,455.6,447.2,473.5,428.7z"/>
</g>
</svg>
