<?xml version="1.0" encoding="utf-8"?>
<!-- Generator: Adobe Illustrator 19.0.0, SVG Export Plug-In . SVG Version: 6.00 Build 0)  -->
<svg version="1.1" id="Layer_1" xmlns="http://www.w3.org/2000/svg" xmlns:xlink="http://www.w3.org/1999/xlink" x="0px" y="0px"
	 viewBox="0 0 302 302" xml:space="preserve">
<style type="text/css">
	.st0{fill:#FFFFFF;}
</style>
<path id="XMLID_13_" class="st0" d="M302,142.5h-27.3l17.4-17.4l-8.5-8.5l-25.9,25.9h-44.7l15.8-15.8l-5.6-13.6l-22.4,0l31.6-31.6
	h36.6l0-12h-24.6l19.3-19.3l-12-12l-19.3,19.3V32.9l-12,0v36.6l-31.6,31.6l0-22.4l-13.5-5.6l-15.8,15.8V44.2l25.9-25.9l-8.5-8.5
	l-17.4,17.4V0h-17v27.3L125.1,9.9l-8.5,8.5l25.9,25.9v44.7l-15.8-15.8l-13.6,5.6l0,22.4L81.5,69.5V32.9l-12,0v24.6L50.2,38.2l-12,12
	l19.3,19.3H32.9l0,12h36.6l31.6,31.6l-22.4,0l-5.6,13.5l15.8,15.8H44.2l-25.9-25.9l-8.5,8.5l17.4,17.4H0v17h27.3L9.9,176.9l8.5,8.5
	l25.9-25.9h44.7l-15.8,15.8l5.6,13.6l22.4,0l-31.6,31.6H32.9l0,12h24.6l-19.3,19.3l12,12l19.3-19.3v24.6h12v-36.6l31.6-31.6l0,22.4
	l13.5,5.6l15.8-15.8v44.7l-25.9,25.9l8.5,8.5l17.4-17.4V302h17v-27.3l17.4,17.4l8.5-8.5l-25.9-25.9v-44.7l15.8,15.8l13.6-5.6l0-22.4
	l31.6,31.6v36.6h12v-24.6l19.3,19.3l12-12l-19.3-19.3h24.6l0-12h-36.6l-31.6-31.6l22.4,0l5.6-13.5l-15.8-15.8h44.7l25.9,25.9
	l8.5-8.5l-17.4-17.4H302V142.5z M176.9,88.5v24.6l-17.4,17.4v-24.6L176.9,88.5z M142.5,105.9v24.6l-17.4-17.4l0-24.6L142.5,105.9z
	 M88.5,125.1h24.6l17.4,17.4h-24.6L88.5,125.1z M113.1,176.9l-24.6,0l17.4-17.4h24.6L113.1,176.9z M125.1,213.5l0-24.6l17.4-17.4
	v24.6L125.1,213.5z M159.5,196.1v-24.6l17.4,17.4v24.6L159.5,196.1z M213.5,176.9l-24.6,0l-17.4-17.4h24.6L213.5,176.9z
	 M196.1,142.5h-24.6l17.4-17.4h24.6L196.1,142.5z"/>
</svg>
