<?xml version="1.0" encoding="utf-8"?>
<!-- Generator: Adobe Illustrator 19.0.0, SVG Export Plug-In . SVG Version: 6.00 Build 0)  -->
<svg version="1.1" id="Layer_1" xmlns="http://www.w3.org/2000/svg" xmlns:xlink="http://www.w3.org/1999/xlink" x="0px" y="0px"
	 viewBox="-105 189.8 383.6 463.1" style="enable-background:new -105 189.8 383.6 463.1;" xml:space="preserve">
<style type="text/css">
	.st0{fill:#10B3D3;}
</style>
<g id="XMLID_4_">
	<path id="XMLID_15_" class="st0" d="M10,344.7h-114.4c0,23.3,0,46.7,0,70c73.3,0,146.7,0,220,0c33.8,0,67.9-1.1,82,13
		s12.2,46.9,12,70c23,0,46,0,69,0c0-80.8-1.4-103.2-26.7-128.4c-25.3-25.2-41.2-25.5-151.3-24.7H75.3V244h45.3
		c6.2,11.8,18.5,19.8,32.7,19.8c20.4,0,37-16.6,37-37s-16.6-37-37-37c-14.3,0-26.7,8.1-32.9,20H75.2c-0.3-11.1-9.3-20-20.5-20H42.6
		h-12c-11.1,0-20.2,8.9-20.5,20h-45.2c-6.2-11.9-18.6-20-32.9-20c-20.4,0-37,16.6-37,37s16.6,37,37,37c14.2,0,26.5-8,32.7-19.8H10
		V344.7z"/>
	<path id="XMLID_16_" class="st0" d="M239.8,547.9c-10.4,21.4-59.1,105,4.5,105s14.8-83.6,4.5-105
		C247,544.1,241.6,544.1,239.8,547.9z"/>
</g>
</svg>
