<?xml version="1.0" encoding="utf-8"?>
<!-- Generator: Adobe Illustrator 18.0.0, SVG Export Plug-In . SVG Version: 6.00 Build 0)  -->
<!DOCTYPE svg PUBLIC "-//W3C//DTD SVG 1.1//EN" "http://www.w3.org/Graphics/SVG/1.1/DTD/svg11.dtd">
<svg version="1.1" id="Layer_1" xmlns="http://www.w3.org/2000/svg" xmlns:xlink="http://www.w3.org/1999/xlink" x="0px" y="0px"
	 viewBox="0 0 30 30" enable-background="new 0 0 30 30" xml:space="preserve">
<g id="QR" display="none">
	<path display="inline" fill="#FFFFFF" d="M21.3,0H8.7C7.5,0,6.5,1,6.5,2.2v25.6c0,1.2,1,2.2,2.2,2.2h12.6c1.2,0,2.2-1,2.2-2.2V2.2
		C23.5,1,22.5,0,21.3,0z M15,29c-0.8,0-1.4-0.6-1.4-1.4s0.6-1.4,1.4-1.4c0.8,0,1.4,0.6,1.4,1.4S15.8,29,15,29z M22.5,25.9h-15V2.3
		h15V25.9z M16.9,1.6H13V1.2h3.9V1.6z M15.2,0.7c0,0.1-0.1,0.2-0.2,0.2c-0.1,0-0.2-0.1-0.2-0.2s0.1-0.2,0.2-0.2
		C15.1,0.4,15.2,0.5,15.2,0.7z"/>
	<rect x="20" y="9.5" display="inline" fill="#FFFFFF" width="0.5" height="0.5"/>
	<rect x="20" y="10" display="inline" fill="#FFFFFF" width="0.5" height="0.5"/>
	<rect x="20" y="10.5" display="inline" fill="#FFFFFF" width="0.5" height="0.5"/>
	<rect x="20" y="11.1" display="inline" fill="#FFFFFF" width="0.5" height="0.5"/>
	<rect x="20" y="11.6" display="inline" fill="#FFFFFF" width="0.5" height="0.5"/>
	<rect x="20" y="12.1" display="inline" fill="#FFFFFF" width="0.5" height="0.5"/>
	<rect x="20" y="12.6" display="inline" fill="#FFFFFF" width="0.5" height="0.5"/>
	<rect x="20" y="14.2" display="inline" fill="#FFFFFF" width="0.5" height="0.5"/>
	<rect x="20" y="14.7" display="inline" fill="#FFFFFF" width="0.5" height="0.5"/>
	<rect x="20" y="15.3" display="inline" fill="#FFFFFF" width="0.5" height="0.5"/>
	<rect x="20" y="16.3" display="inline" fill="#FFFFFF" width="0.5" height="0.5"/>
	<rect x="20" y="17.9" display="inline" fill="#FFFFFF" width="0.5" height="0.5"/>
	<rect x="20" y="18.4" display="inline" fill="#FFFFFF" width="0.5" height="0.5"/>
	<rect x="20" y="18.9" display="inline" fill="#FFFFFF" width="0.5" height="0.5"/>
	<rect x="19.5" y="9.5" display="inline" fill="#FFFFFF" width="0.5" height="0.5"/>
	<rect x="19.5" y="12.6" display="inline" fill="#FFFFFF" width="0.5" height="0.5"/>
	<rect x="19.5" y="13.7" display="inline" fill="#FFFFFF" width="0.5" height="0.5"/>
	<rect x="19.5" y="15.3" display="inline" fill="#FFFFFF" width="0.5" height="0.5"/>
	<rect x="19.5" y="16.8" display="inline" fill="#FFFFFF" width="0.5" height="0.5"/>
	<rect x="19.5" y="17.9" display="inline" fill="#FFFFFF" width="0.5" height="0.5"/>
	<rect x="19.5" y="20" display="inline" fill="#FFFFFF" width="0.5" height="0.5"/>
	<rect x="18.9" y="9.5" display="inline" fill="#FFFFFF" width="0.5" height="0.5"/>
	<rect x="18.9" y="10.5" display="inline" fill="#FFFFFF" width="0.5" height="0.5"/>
	<rect x="18.9" y="11.1" display="inline" fill="#FFFFFF" width="0.5" height="0.5"/>
	<rect x="18.9" y="11.6" display="inline" fill="#FFFFFF" width="0.5" height="0.5"/>
	<rect x="18.9" y="12.6" display="inline" fill="#FFFFFF" width="0.5" height="0.5"/>
	<rect x="18.9" y="13.7" display="inline" fill="#FFFFFF" width="0.5" height="0.5"/>
	<rect x="18.9" y="14.7" display="inline" fill="#FFFFFF" width="0.5" height="0.5"/>
	<rect x="18.9" y="16.8" display="inline" fill="#FFFFFF" width="0.5" height="0.5"/>
	<rect x="18.9" y="18.9" display="inline" fill="#FFFFFF" width="0.5" height="0.5"/>
	<rect x="18.4" y="9.5" display="inline" fill="#FFFFFF" width="0.5" height="0.5"/>
	<rect x="18.4" y="10.5" display="inline" fill="#FFFFFF" width="0.5" height="0.5"/>
	<rect x="18.4" y="11.1" display="inline" fill="#FFFFFF" width="0.5" height="0.5"/>
	<rect x="18.4" y="11.6" display="inline" fill="#FFFFFF" width="0.5" height="0.5"/>
	<rect x="18.4" y="12.6" display="inline" fill="#FFFFFF" width="0.5" height="0.5"/>
	<rect x="18.4" y="15.3" display="inline" fill="#FFFFFF" width="0.5" height="0.5"/>
	<rect x="18.4" y="15.8" display="inline" fill="#FFFFFF" width="0.5" height="0.5"/>
	<rect x="18.4" y="16.8" display="inline" fill="#FFFFFF" width="0.5" height="0.5"/>
	<rect x="18.4" y="17.9" display="inline" fill="#FFFFFF" width="0.5" height="0.5"/>
	<rect x="18.4" y="19.5" display="inline" fill="#FFFFFF" width="0.5" height="0.5"/>
	<rect x="17.9" y="9.5" display="inline" fill="#FFFFFF" width="0.5" height="0.5"/>
	<rect x="17.9" y="10.5" display="inline" fill="#FFFFFF" width="0.5" height="0.5"/>
	<rect x="17.9" y="11.1" display="inline" fill="#FFFFFF" width="0.5" height="0.5"/>
	<rect x="17.9" y="11.6" display="inline" fill="#FFFFFF" width="0.5" height="0.5"/>
	<rect x="17.9" y="12.6" display="inline" fill="#FFFFFF" width="0.5" height="0.5"/>
	<rect x="17.9" y="13.7" display="inline" fill="#FFFFFF" width="0.5" height="0.5"/>
	<rect x="17.9" y="14.2" display="inline" fill="#FFFFFF" width="0.5" height="0.5"/>
	<rect x="17.9" y="15.3" display="inline" fill="#FFFFFF" width="0.5" height="0.5"/>
	<rect x="17.9" y="16.8" display="inline" fill="#FFFFFF" width="0.5" height="0.5"/>
	<rect x="17.9" y="17.4" display="inline" fill="#FFFFFF" width="0.5" height="0.5"/>
	<rect x="17.9" y="17.9" display="inline" fill="#FFFFFF" width="0.5" height="0.5"/>
	<rect x="17.9" y="18.4" display="inline" fill="#FFFFFF" width="0.5" height="0.5"/>
	<rect x="17.9" y="18.9" display="inline" fill="#FFFFFF" width="0.5" height="0.5"/>
	<rect x="17.4" y="9.5" display="inline" fill="#FFFFFF" width="0.5" height="0.5"/>
	<rect x="17.4" y="12.6" display="inline" fill="#FFFFFF" width="0.5" height="0.5"/>
	<rect x="17.4" y="13.7" display="inline" fill="#FFFFFF" width="0.5" height="0.5"/>
	<rect x="17.4" y="14.7" display="inline" fill="#FFFFFF" width="0.5" height="0.5"/>
	<rect x="17.4" y="15.8" display="inline" fill="#FFFFFF" width="0.5" height="0.5"/>
	<rect x="17.4" y="16.3" display="inline" fill="#FFFFFF" width="0.5" height="0.5"/>
	<rect x="17.4" y="17.9" display="inline" fill="#FFFFFF" width="0.5" height="0.5"/>
	<rect x="17.4" y="18.4" display="inline" fill="#FFFFFF" width="0.5" height="0.5"/>
	<rect x="17.4" y="19.5" display="inline" fill="#FFFFFF" width="0.5" height="0.5"/>
	<rect x="16.8" y="9.5" display="inline" fill="#FFFFFF" width="0.5" height="0.5"/>
	<rect x="16.8" y="10" display="inline" fill="#FFFFFF" width="0.5" height="0.5"/>
	<rect x="16.8" y="10.5" display="inline" fill="#FFFFFF" width="0.5" height="0.5"/>
	<rect x="16.8" y="11.1" display="inline" fill="#FFFFFF" width="0.5" height="0.5"/>
	<rect x="16.8" y="11.6" display="inline" fill="#FFFFFF" width="0.5" height="0.5"/>
	<rect x="16.8" y="12.1" display="inline" fill="#FFFFFF" width="0.5" height="0.5"/>
	<rect x="16.8" y="12.6" display="inline" fill="#FFFFFF" width="0.5" height="0.5"/>
	<rect x="16.8" y="13.7" display="inline" fill="#FFFFFF" width="0.5" height="0.5"/>
	<rect x="16.8" y="15.3" display="inline" fill="#FFFFFF" width="0.5" height="0.5"/>
	<rect x="16.8" y="16.8" display="inline" fill="#FFFFFF" width="0.5" height="0.5"/>
	<rect x="16.8" y="18.4" display="inline" fill="#FFFFFF" width="0.5" height="0.5"/>
	<rect x="16.8" y="20" display="inline" fill="#FFFFFF" width="0.5" height="0.5"/>
	<rect x="16.3" y="15.8" display="inline" fill="#FFFFFF" width="0.5" height="0.5"/>
	<rect x="16.3" y="16.3" display="inline" fill="#FFFFFF" width="0.5" height="0.5"/>
	<rect x="16.3" y="16.8" display="inline" fill="#FFFFFF" width="0.5" height="0.5"/>
	<rect x="16.3" y="18.9" display="inline" fill="#FFFFFF" width="0.5" height="0.5"/>
	<rect x="15.8" y="11.1" display="inline" fill="#FFFFFF" width="0.5" height="0.5"/>
	<rect x="15.8" y="12.6" display="inline" fill="#FFFFFF" width="0.5" height="0.5"/>
	<rect x="15.8" y="13.7" display="inline" fill="#FFFFFF" width="0.5" height="0.5"/>
	<rect x="15.8" y="14.2" display="inline" fill="#FFFFFF" width="0.5" height="0.5"/>
	<rect x="15.8" y="14.7" display="inline" fill="#FFFFFF" width="0.5" height="0.5"/>
	<rect x="15.8" y="15.3" display="inline" fill="#FFFFFF" width="0.5" height="0.5"/>
	<rect x="15.8" y="15.8" display="inline" fill="#FFFFFF" width="0.5" height="0.5"/>
	<rect x="15.8" y="16.3" display="inline" fill="#FFFFFF" width="0.5" height="0.5"/>
	<rect x="15.8" y="16.8" display="inline" fill="#FFFFFF" width="0.5" height="0.5"/>
	<rect x="15.8" y="17.9" display="inline" fill="#FFFFFF" width="0.5" height="0.5"/>
	<rect x="15.8" y="18.4" display="inline" fill="#FFFFFF" width="0.5" height="0.5"/>
	<rect x="15.8" y="18.9" display="inline" fill="#FFFFFF" width="0.5" height="0.5"/>
	<rect x="15.8" y="19.5" display="inline" fill="#FFFFFF" width="0.5" height="0.5"/>
	<rect x="15.3" y="10.5" display="inline" fill="#FFFFFF" width="0.5" height="0.5"/>
	<rect x="15.3" y="13.2" display="inline" fill="#FFFFFF" width="0.5" height="0.5"/>
	<rect x="15.3" y="18.4" display="inline" fill="#FFFFFF" width="0.5" height="0.5"/>
	<rect x="15.3" y="18.9" display="inline" fill="#FFFFFF" width="0.5" height="0.5"/>
	<rect x="15.3" y="19.5" display="inline" fill="#FFFFFF" width="0.5" height="0.5"/>
	<rect x="14.7" y="10.5" display="inline" fill="#FFFFFF" width="0.5" height="0.5"/>
	<rect x="14.7" y="11.1" display="inline" fill="#FFFFFF" width="0.5" height="0.5"/>
	<rect x="14.7" y="11.6" display="inline" fill="#FFFFFF" width="0.5" height="0.5"/>
	<rect x="14.7" y="12.6" display="inline" fill="#FFFFFF" width="0.5" height="0.5"/>
	<rect x="14.7" y="13.2" display="inline" fill="#FFFFFF" width="0.5" height="0.5"/>
	<rect x="14.7" y="13.7" display="inline" fill="#FFFFFF" width="0.5" height="0.5"/>
	<rect x="14.7" y="14.7" display="inline" fill="#FFFFFF" width="0.5" height="0.5"/>
	<rect x="14.7" y="15.8" display="inline" fill="#FFFFFF" width="0.5" height="0.5"/>
	<rect x="14.7" y="16.3" display="inline" fill="#FFFFFF" width="0.5" height="0.5"/>
	<rect x="14.7" y="16.8" display="inline" fill="#FFFFFF" width="0.5" height="0.5"/>
	<rect x="14.7" y="17.4" display="inline" fill="#FFFFFF" width="0.5" height="0.5"/>
	<rect x="14.7" y="18.4" display="inline" fill="#FFFFFF" width="0.5" height="0.5"/>
	<rect x="14.2" y="9.5" display="inline" fill="#FFFFFF" width="0.5" height="0.5"/>
	<rect x="14.2" y="10" display="inline" fill="#FFFFFF" width="0.5" height="0.5"/>
	<rect x="14.2" y="10.5" display="inline" fill="#FFFFFF" width="0.5" height="0.5"/>
	<rect x="14.2" y="11.1" display="inline" fill="#FFFFFF" width="0.5" height="0.5"/>
	<rect x="14.2" y="11.6" display="inline" fill="#FFFFFF" width="0.5" height="0.5"/>
	<rect x="14.2" y="12.1" display="inline" fill="#FFFFFF" width="0.5" height="0.5"/>
	<rect x="14.2" y="13.2" display="inline" fill="#FFFFFF" width="0.5" height="0.5"/>
	<rect x="14.2" y="14.7" display="inline" fill="#FFFFFF" width="0.5" height="0.5"/>
	<rect x="14.2" y="16.3" display="inline" fill="#FFFFFF" width="0.5" height="0.5"/>
	<rect x="14.2" y="17.4" display="inline" fill="#FFFFFF" width="0.5" height="0.5"/>
	<rect x="14.2" y="17.9" display="inline" fill="#FFFFFF" width="0.5" height="0.5"/>
	<rect x="14.2" y="18.4" display="inline" fill="#FFFFFF" width="0.5" height="0.5"/>
	<rect x="14.2" y="18.9" display="inline" fill="#FFFFFF" width="0.5" height="0.5"/>
	<rect x="14.2" y="19.5" display="inline" fill="#FFFFFF" width="0.5" height="0.5"/>
	<rect x="13.7" y="10" display="inline" fill="#FFFFFF" width="0.5" height="0.5"/>
	<rect x="13.7" y="10.5" display="inline" fill="#FFFFFF" width="0.5" height="0.5"/>
	<rect x="13.7" y="11.6" display="inline" fill="#FFFFFF" width="0.5" height="0.5"/>
	<rect x="13.7" y="12.1" display="inline" fill="#FFFFFF" width="0.5" height="0.5"/>
	<rect x="13.7" y="12.6" display="inline" fill="#FFFFFF" width="0.5" height="0.5"/>
	<rect x="13.7" y="13.2" display="inline" fill="#FFFFFF" width="0.5" height="0.5"/>
	<rect x="13.7" y="14.2" display="inline" fill="#FFFFFF" width="0.5" height="0.5"/>
	<rect x="13.7" y="14.7" display="inline" fill="#FFFFFF" width="0.5" height="0.5"/>
	<rect x="13.7" y="15.8" display="inline" fill="#FFFFFF" width="0.5" height="0.5"/>
	<rect x="13.7" y="16.3" display="inline" fill="#FFFFFF" width="0.5" height="0.5"/>
	<rect x="13.7" y="16.8" display="inline" fill="#FFFFFF" width="0.5" height="0.5"/>
	<rect x="13.7" y="18.4" display="inline" fill="#FFFFFF" width="0.5" height="0.5"/>
	<rect x="13.7" y="19.5" display="inline" fill="#FFFFFF" width="0.5" height="0.5"/>
	<rect x="13.7" y="20" display="inline" fill="#FFFFFF" width="0.5" height="0.5"/>
	<rect x="13.2" y="13.7" display="inline" fill="#FFFFFF" width="0.5" height="0.5"/>
	<rect x="13.2" y="15.3" display="inline" fill="#FFFFFF" width="0.5" height="0.5"/>
	<rect x="12.6" y="9.5" display="inline" fill="#FFFFFF" width="0.5" height="0.5"/>
	<rect x="12.6" y="10" display="inline" fill="#FFFFFF" width="0.5" height="0.5"/>
	<rect x="12.6" y="10.5" display="inline" fill="#FFFFFF" width="0.5" height="0.5"/>
	<rect x="12.6" y="11.1" display="inline" fill="#FFFFFF" width="0.5" height="0.5"/>
	<rect x="12.6" y="11.6" display="inline" fill="#FFFFFF" width="0.5" height="0.5"/>
	<rect x="12.6" y="12.1" display="inline" fill="#FFFFFF" width="0.5" height="0.5"/>
	<rect x="12.6" y="12.6" display="inline" fill="#FFFFFF" width="0.5" height="0.5"/>
	<rect x="12.6" y="13.7" display="inline" fill="#FFFFFF" width="0.5" height="0.5"/>
	<rect x="12.6" y="14.7" display="inline" fill="#FFFFFF" width="0.5" height="0.5"/>
	<rect x="12.6" y="15.8" display="inline" fill="#FFFFFF" width="0.5" height="0.5"/>
	<rect x="12.6" y="16.8" display="inline" fill="#FFFFFF" width="0.5" height="0.5"/>
	<rect x="12.6" y="17.4" display="inline" fill="#FFFFFF" width="0.5" height="0.5"/>
	<rect x="12.6" y="17.9" display="inline" fill="#FFFFFF" width="0.5" height="0.5"/>
	<rect x="12.6" y="18.4" display="inline" fill="#FFFFFF" width="0.5" height="0.5"/>
	<rect x="12.6" y="18.9" display="inline" fill="#FFFFFF" width="0.5" height="0.5"/>
	<rect x="12.6" y="19.5" display="inline" fill="#FFFFFF" width="0.5" height="0.5"/>
	<rect x="12.6" y="20" display="inline" fill="#FFFFFF" width="0.5" height="0.5"/>
	<rect x="12.1" y="9.5" display="inline" fill="#FFFFFF" width="0.5" height="0.5"/>
	<rect x="12.1" y="12.6" display="inline" fill="#FFFFFF" width="0.5" height="0.5"/>
	<rect x="12.1" y="15.3" display="inline" fill="#FFFFFF" width="0.5" height="0.5"/>
	<rect x="12.1" y="15.8" display="inline" fill="#FFFFFF" width="0.5" height="0.5"/>
	<rect x="12.1" y="16.8" display="inline" fill="#FFFFFF" width="0.5" height="0.5"/>
	<rect x="12.1" y="20" display="inline" fill="#FFFFFF" width="0.5" height="0.5"/>
	<rect x="11.6" y="9.5" display="inline" fill="#FFFFFF" width="0.5" height="0.5"/>
	<rect x="11.6" y="10.5" display="inline" fill="#FFFFFF" width="0.5" height="0.5"/>
	<rect x="11.6" y="11.1" display="inline" fill="#FFFFFF" width="0.5" height="0.5"/>
	<rect x="11.6" y="11.6" display="inline" fill="#FFFFFF" width="0.5" height="0.5"/>
	<rect x="11.6" y="12.6" display="inline" fill="#FFFFFF" width="0.5" height="0.5"/>
	<rect x="11.6" y="14.2" display="inline" fill="#FFFFFF" width="0.5" height="0.5"/>
	<rect x="11.6" y="14.7" display="inline" fill="#FFFFFF" width="0.5" height="0.5"/>
	<rect x="11.6" y="15.8" display="inline" fill="#FFFFFF" width="0.5" height="0.5"/>
	<rect x="11.6" y="16.8" display="inline" fill="#FFFFFF" width="0.5" height="0.5"/>
	<rect x="11.6" y="17.9" display="inline" fill="#FFFFFF" width="0.5" height="0.5"/>
	<rect x="11.6" y="18.4" display="inline" fill="#FFFFFF" width="0.5" height="0.5"/>
	<rect x="11.6" y="18.9" display="inline" fill="#FFFFFF" width="0.5" height="0.5"/>
	<rect x="11.6" y="20" display="inline" fill="#FFFFFF" width="0.5" height="0.5"/>
	<rect x="11.1" y="9.5" display="inline" fill="#FFFFFF" width="0.5" height="0.5"/>
	<rect x="11.1" y="10.5" display="inline" fill="#FFFFFF" width="0.5" height="0.5"/>
	<rect x="11.1" y="11.1" display="inline" fill="#FFFFFF" width="0.5" height="0.5"/>
	<rect x="11.1" y="11.6" display="inline" fill="#FFFFFF" width="0.5" height="0.5"/>
	<rect x="11.1" y="12.6" display="inline" fill="#FFFFFF" width="0.5" height="0.5"/>
	<rect x="11.1" y="13.7" display="inline" fill="#FFFFFF" width="0.5" height="0.5"/>
	<rect x="11.1" y="14.2" display="inline" fill="#FFFFFF" width="0.5" height="0.5"/>
	<rect x="11.1" y="14.7" display="inline" fill="#FFFFFF" width="0.5" height="0.5"/>
	<rect x="11.1" y="15.3" display="inline" fill="#FFFFFF" width="0.5" height="0.5"/>
	<rect x="11.1" y="15.8" display="inline" fill="#FFFFFF" width="0.5" height="0.5"/>
	<rect x="11.1" y="16.8" display="inline" fill="#FFFFFF" width="0.5" height="0.5"/>
	<rect x="11.1" y="17.9" display="inline" fill="#FFFFFF" width="0.5" height="0.5"/>
	<rect x="11.1" y="18.4" display="inline" fill="#FFFFFF" width="0.5" height="0.5"/>
	<rect x="11.1" y="18.9" display="inline" fill="#FFFFFF" width="0.5" height="0.5"/>
	<rect x="11.1" y="20" display="inline" fill="#FFFFFF" width="0.5" height="0.5"/>
	<rect x="10.5" y="9.5" display="inline" fill="#FFFFFF" width="0.5" height="0.5"/>
	<rect x="10.5" y="10.5" display="inline" fill="#FFFFFF" width="0.5" height="0.5"/>
	<rect x="10.5" y="11.1" display="inline" fill="#FFFFFF" width="0.5" height="0.5"/>
	<rect x="10.5" y="11.6" display="inline" fill="#FFFFFF" width="0.5" height="0.5"/>
	<rect x="10.5" y="12.6" display="inline" fill="#FFFFFF" width="0.5" height="0.5"/>
	<rect x="10.5" y="15.3" display="inline" fill="#FFFFFF" width="0.5" height="0.5"/>
	<rect x="10.5" y="16.8" display="inline" fill="#FFFFFF" width="0.5" height="0.5"/>
	<rect x="10.5" y="17.9" display="inline" fill="#FFFFFF" width="0.5" height="0.5"/>
	<rect x="10.5" y="18.4" display="inline" fill="#FFFFFF" width="0.5" height="0.5"/>
	<rect x="10.5" y="18.9" display="inline" fill="#FFFFFF" width="0.5" height="0.5"/>
	<rect x="10.5" y="20" display="inline" fill="#FFFFFF" width="0.5" height="0.5"/>
	<rect x="10" y="9.5" display="inline" fill="#FFFFFF" width="0.5" height="0.5"/>
	<rect x="10" y="12.6" display="inline" fill="#FFFFFF" width="0.5" height="0.5"/>
	<rect x="10" y="13.7" display="inline" fill="#FFFFFF" width="0.5" height="0.5"/>
	<rect x="10" y="15.3" display="inline" fill="#FFFFFF" width="0.5" height="0.5"/>
	<rect x="10" y="16.8" display="inline" fill="#FFFFFF" width="0.5" height="0.5"/>
	<rect x="10" y="20" display="inline" fill="#FFFFFF" width="0.5" height="0.5"/>
	<rect x="9.5" y="9.5" display="inline" fill="#FFFFFF" width="0.5" height="0.5"/>
	<rect x="9.5" y="10" display="inline" fill="#FFFFFF" width="0.5" height="0.5"/>
	<rect x="9.5" y="10.5" display="inline" fill="#FFFFFF" width="0.5" height="0.5"/>
	<rect x="9.5" y="11.1" display="inline" fill="#FFFFFF" width="0.5" height="0.5"/>
	<rect x="9.5" y="11.6" display="inline" fill="#FFFFFF" width="0.5" height="0.5"/>
	<rect x="9.5" y="12.1" display="inline" fill="#FFFFFF" width="0.5" height="0.5"/>
	<rect x="9.5" y="12.6" display="inline" fill="#FFFFFF" width="0.5" height="0.5"/>
	<rect x="9.5" y="13.7" display="inline" fill="#FFFFFF" width="0.5" height="0.5"/>
	<rect x="9.5" y="14.7" display="inline" fill="#FFFFFF" width="0.5" height="0.5"/>
	<rect x="9.5" y="16.8" display="inline" fill="#FFFFFF" width="0.5" height="0.5"/>
	<rect x="9.5" y="17.4" display="inline" fill="#FFFFFF" width="0.5" height="0.5"/>
	<rect x="9.5" y="17.9" display="inline" fill="#FFFFFF" width="0.5" height="0.5"/>
	<rect x="9.5" y="18.4" display="inline" fill="#FFFFFF" width="0.5" height="0.5"/>
	<rect x="9.5" y="18.9" display="inline" fill="#FFFFFF" width="0.5" height="0.5"/>
	<rect x="9.5" y="19.5" display="inline" fill="#FFFFFF" width="0.5" height="0.5"/>
	<rect x="9.5" y="20" display="inline" fill="#FFFFFF" width="0.5" height="0.5"/>
</g>
<path id="CheckIn" fill="#FFFFFF" d="M28,27.7l-2.5,1.6C24,30.4,17.2,31.6,8,20.5C-0.9,9.7,1.6,3.8,2.8,2.4l2-2.1
	c0.5-0.4,1.2-0.4,1.6,0.1l5.4,6.4l0,0c0.4,0.5,0.4,1.2-0.1,1.6v0l-2.4,1.7c-0.9,0.9-0.1,2.4,0.8,3.8l4.6,5.4c2.1,2.1,3.3,3,4.3,2.3
	l2-2.2c0.5-0.4,1.2-0.4,1.6,0.1l5.4,6.4v0C28.6,26.5,28.5,27.2,28,27.7z"/>
</svg>
