<?xml version="1.0" encoding="utf-8"?>
<!-- Generator: Adobe Illustrator 18.0.0, SVG Export Plug-In . SVG Version: 6.00 Build 0)  -->
<!DOCTYPE svg PUBLIC "-//W3C//DTD SVG 1.1//EN" "http://www.w3.org/Graphics/SVG/1.1/DTD/svg11.dtd">
<svg version="1.1" id="Layer_1" xmlns="http://www.w3.org/2000/svg" xmlns:xlink="http://www.w3.org/1999/xlink" x="0px" y="0px"
	 viewBox="0 0 30 30" enable-background="new 0 0 30 30" xml:space="preserve">
<path fill="#FFFFFF" d="M21.3,0H8.7C7.5,0,6.5,1,6.5,2.2v25.6c0,1.2,1,2.2,2.2,2.2h12.6c1.2,0,2.2-1,2.2-2.2V2.2
	C23.5,1,22.5,0,21.3,0z M15,29c-0.8,0-1.4-0.6-1.4-1.4c0-0.8,0.6-1.4,1.4-1.4c0.8,0,1.4,0.6,1.4,1.4C16.4,28.4,15.8,29,15,29z
	 M22.5,25.9h-15V2.3h15V25.9z M16.9,1.6h-3.9V1.2h3.9V1.6z M15.2,0.7c0,0.1-0.1,0.2-0.2,0.2c-0.1,0-0.2-0.1-0.2-0.2
	c0-0.1,0.1-0.2,0.2-0.2C15.1,0.4,15.2,0.5,15.2,0.7z"/>
<rect x="20" y="9.5" fill="#FFFFFF" width="0.5" height="0.5"/>
<rect x="20" y="10" fill="#FFFFFF" width="0.5" height="0.5"/>
<rect x="20" y="10.5" fill="#FFFFFF" width="0.5" height="0.5"/>
<rect x="20" y="11.1" fill="#FFFFFF" width="0.5" height="0.5"/>
<rect x="20" y="11.6" fill="#FFFFFF" width="0.5" height="0.5"/>
<rect x="20" y="12.1" fill="#FFFFFF" width="0.5" height="0.5"/>
<rect x="20" y="12.6" fill="#FFFFFF" width="0.5" height="0.5"/>
<rect x="20" y="14.2" fill="#FFFFFF" width="0.5" height="0.5"/>
<rect x="20" y="14.7" fill="#FFFFFF" width="0.5" height="0.5"/>
<rect x="20" y="15.3" fill="#FFFFFF" width="0.5" height="0.5"/>
<rect x="20" y="16.3" fill="#FFFFFF" width="0.5" height="0.5"/>
<rect x="20" y="17.9" fill="#FFFFFF" width="0.5" height="0.5"/>
<rect x="20" y="18.4" fill="#FFFFFF" width="0.5" height="0.5"/>
<rect x="20" y="18.9" fill="#FFFFFF" width="0.5" height="0.5"/>
<rect x="19.5" y="9.5" fill="#FFFFFF" width="0.5" height="0.5"/>
<rect x="19.5" y="12.6" fill="#FFFFFF" width="0.5" height="0.5"/>
<rect x="19.5" y="13.7" fill="#FFFFFF" width="0.5" height="0.5"/>
<rect x="19.5" y="15.3" fill="#FFFFFF" width="0.5" height="0.5"/>
<rect x="19.5" y="16.8" fill="#FFFFFF" width="0.5" height="0.5"/>
<rect x="19.5" y="17.9" fill="#FFFFFF" width="0.5" height="0.5"/>
<rect x="19.5" y="20" fill="#FFFFFF" width="0.5" height="0.5"/>
<rect x="18.9" y="9.5" fill="#FFFFFF" width="0.5" height="0.5"/>
<rect x="18.9" y="10.5" fill="#FFFFFF" width="0.5" height="0.5"/>
<rect x="18.9" y="11.1" fill="#FFFFFF" width="0.5" height="0.5"/>
<rect x="18.9" y="11.6" fill="#FFFFFF" width="0.5" height="0.5"/>
<rect x="18.9" y="12.6" fill="#FFFFFF" width="0.5" height="0.5"/>
<rect x="18.9" y="13.7" fill="#FFFFFF" width="0.5" height="0.5"/>
<rect x="18.9" y="14.7" fill="#FFFFFF" width="0.5" height="0.5"/>
<rect x="18.9" y="16.8" fill="#FFFFFF" width="0.5" height="0.5"/>
<rect x="18.9" y="18.9" fill="#FFFFFF" width="0.5" height="0.5"/>
<rect x="18.4" y="9.5" fill="#FFFFFF" width="0.5" height="0.5"/>
<rect x="18.4" y="10.5" fill="#FFFFFF" width="0.5" height="0.5"/>
<rect x="18.4" y="11.1" fill="#FFFFFF" width="0.5" height="0.5"/>
<rect x="18.4" y="11.6" fill="#FFFFFF" width="0.5" height="0.5"/>
<rect x="18.4" y="12.6" fill="#FFFFFF" width="0.5" height="0.5"/>
<rect x="18.4" y="15.3" fill="#FFFFFF" width="0.5" height="0.5"/>
<rect x="18.4" y="15.8" fill="#FFFFFF" width="0.5" height="0.5"/>
<rect x="18.4" y="16.8" fill="#FFFFFF" width="0.5" height="0.5"/>
<rect x="18.4" y="17.9" fill="#FFFFFF" width="0.5" height="0.5"/>
<rect x="18.4" y="19.5" fill="#FFFFFF" width="0.5" height="0.5"/>
<rect x="17.9" y="9.5" fill="#FFFFFF" width="0.5" height="0.5"/>
<rect x="17.9" y="10.5" fill="#FFFFFF" width="0.5" height="0.5"/>
<rect x="17.9" y="11.1" fill="#FFFFFF" width="0.5" height="0.5"/>
<rect x="17.9" y="11.6" fill="#FFFFFF" width="0.5" height="0.5"/>
<rect x="17.9" y="12.6" fill="#FFFFFF" width="0.5" height="0.5"/>
<rect x="17.9" y="13.7" fill="#FFFFFF" width="0.5" height="0.5"/>
<rect x="17.9" y="14.2" fill="#FFFFFF" width="0.5" height="0.5"/>
<rect x="17.9" y="15.3" fill="#FFFFFF" width="0.5" height="0.5"/>
<rect x="17.9" y="16.8" fill="#FFFFFF" width="0.5" height="0.5"/>
<rect x="17.9" y="17.4" fill="#FFFFFF" width="0.5" height="0.5"/>
<rect x="17.9" y="17.9" fill="#FFFFFF" width="0.5" height="0.5"/>
<rect x="17.9" y="18.4" fill="#FFFFFF" width="0.5" height="0.5"/>
<rect x="17.9" y="18.9" fill="#FFFFFF" width="0.5" height="0.5"/>
<rect x="17.4" y="9.5" fill="#FFFFFF" width="0.5" height="0.5"/>
<rect x="17.4" y="12.6" fill="#FFFFFF" width="0.5" height="0.5"/>
<rect x="17.4" y="13.7" fill="#FFFFFF" width="0.5" height="0.5"/>
<rect x="17.4" y="14.7" fill="#FFFFFF" width="0.5" height="0.5"/>
<rect x="17.4" y="15.8" fill="#FFFFFF" width="0.5" height="0.5"/>
<rect x="17.4" y="16.3" fill="#FFFFFF" width="0.5" height="0.5"/>
<rect x="17.4" y="17.9" fill="#FFFFFF" width="0.5" height="0.5"/>
<rect x="17.4" y="18.4" fill="#FFFFFF" width="0.5" height="0.5"/>
<rect x="17.4" y="19.5" fill="#FFFFFF" width="0.5" height="0.5"/>
<rect x="16.8" y="9.5" fill="#FFFFFF" width="0.5" height="0.5"/>
<rect x="16.8" y="10" fill="#FFFFFF" width="0.5" height="0.5"/>
<rect x="16.8" y="10.5" fill="#FFFFFF" width="0.5" height="0.5"/>
<rect x="16.8" y="11.1" fill="#FFFFFF" width="0.5" height="0.5"/>
<rect x="16.8" y="11.6" fill="#FFFFFF" width="0.5" height="0.5"/>
<rect x="16.8" y="12.1" fill="#FFFFFF" width="0.5" height="0.5"/>
<rect x="16.8" y="12.6" fill="#FFFFFF" width="0.5" height="0.5"/>
<rect x="16.8" y="13.7" fill="#FFFFFF" width="0.5" height="0.5"/>
<rect x="16.8" y="15.3" fill="#FFFFFF" width="0.5" height="0.5"/>
<rect x="16.8" y="16.8" fill="#FFFFFF" width="0.5" height="0.5"/>
<rect x="16.8" y="18.4" fill="#FFFFFF" width="0.5" height="0.5"/>
<rect x="16.8" y="20" fill="#FFFFFF" width="0.5" height="0.5"/>
<rect x="16.3" y="15.8" fill="#FFFFFF" width="0.5" height="0.5"/>
<rect x="16.3" y="16.3" fill="#FFFFFF" width="0.5" height="0.5"/>
<rect x="16.3" y="16.8" fill="#FFFFFF" width="0.5" height="0.5"/>
<rect x="16.3" y="18.9" fill="#FFFFFF" width="0.5" height="0.5"/>
<rect x="15.8" y="11.1" fill="#FFFFFF" width="0.5" height="0.5"/>
<rect x="15.8" y="12.6" fill="#FFFFFF" width="0.5" height="0.5"/>
<rect x="15.8" y="13.7" fill="#FFFFFF" width="0.5" height="0.5"/>
<rect x="15.8" y="14.2" fill="#FFFFFF" width="0.5" height="0.5"/>
<rect x="15.8" y="14.7" fill="#FFFFFF" width="0.5" height="0.5"/>
<rect x="15.8" y="15.3" fill="#FFFFFF" width="0.5" height="0.5"/>
<rect x="15.8" y="15.8" fill="#FFFFFF" width="0.5" height="0.5"/>
<rect x="15.8" y="16.3" fill="#FFFFFF" width="0.5" height="0.5"/>
<rect x="15.8" y="16.8" fill="#FFFFFF" width="0.5" height="0.5"/>
<rect x="15.8" y="17.9" fill="#FFFFFF" width="0.5" height="0.5"/>
<rect x="15.8" y="18.4" fill="#FFFFFF" width="0.5" height="0.5"/>
<rect x="15.8" y="18.9" fill="#FFFFFF" width="0.5" height="0.5"/>
<rect x="15.8" y="19.5" fill="#FFFFFF" width="0.5" height="0.5"/>
<rect x="15.3" y="10.5" fill="#FFFFFF" width="0.5" height="0.5"/>
<rect x="15.3" y="13.2" fill="#FFFFFF" width="0.5" height="0.5"/>
<rect x="15.3" y="18.4" fill="#FFFFFF" width="0.5" height="0.5"/>
<rect x="15.3" y="18.9" fill="#FFFFFF" width="0.5" height="0.5"/>
<rect x="15.3" y="19.5" fill="#FFFFFF" width="0.5" height="0.5"/>
<rect x="14.7" y="10.5" fill="#FFFFFF" width="0.5" height="0.5"/>
<rect x="14.7" y="11.1" fill="#FFFFFF" width="0.5" height="0.5"/>
<rect x="14.7" y="11.6" fill="#FFFFFF" width="0.5" height="0.5"/>
<rect x="14.7" y="12.6" fill="#FFFFFF" width="0.5" height="0.5"/>
<rect x="14.7" y="13.2" fill="#FFFFFF" width="0.5" height="0.5"/>
<rect x="14.7" y="13.7" fill="#FFFFFF" width="0.5" height="0.5"/>
<rect x="14.7" y="14.7" fill="#FFFFFF" width="0.5" height="0.5"/>
<rect x="14.7" y="15.8" fill="#FFFFFF" width="0.5" height="0.5"/>
<rect x="14.7" y="16.3" fill="#FFFFFF" width="0.5" height="0.5"/>
<rect x="14.7" y="16.8" fill="#FFFFFF" width="0.5" height="0.5"/>
<rect x="14.7" y="17.4" fill="#FFFFFF" width="0.5" height="0.5"/>
<rect x="14.7" y="18.4" fill="#FFFFFF" width="0.5" height="0.5"/>
<rect x="14.2" y="9.5" fill="#FFFFFF" width="0.5" height="0.5"/>
<rect x="14.2" y="10" fill="#FFFFFF" width="0.5" height="0.5"/>
<rect x="14.2" y="10.5" fill="#FFFFFF" width="0.5" height="0.5"/>
<rect x="14.2" y="11.1" fill="#FFFFFF" width="0.5" height="0.5"/>
<rect x="14.2" y="11.6" fill="#FFFFFF" width="0.5" height="0.5"/>
<rect x="14.2" y="12.1" fill="#FFFFFF" width="0.5" height="0.5"/>
<rect x="14.2" y="13.2" fill="#FFFFFF" width="0.5" height="0.5"/>
<rect x="14.2" y="14.7" fill="#FFFFFF" width="0.5" height="0.5"/>
<rect x="14.2" y="16.3" fill="#FFFFFF" width="0.5" height="0.5"/>
<rect x="14.2" y="17.4" fill="#FFFFFF" width="0.5" height="0.5"/>
<rect x="14.2" y="17.9" fill="#FFFFFF" width="0.5" height="0.5"/>
<rect x="14.2" y="18.4" fill="#FFFFFF" width="0.5" height="0.5"/>
<rect x="14.2" y="18.9" fill="#FFFFFF" width="0.5" height="0.5"/>
<rect x="14.2" y="19.5" fill="#FFFFFF" width="0.5" height="0.5"/>
<rect x="13.7" y="10" fill="#FFFFFF" width="0.5" height="0.5"/>
<rect x="13.7" y="10.5" fill="#FFFFFF" width="0.5" height="0.5"/>
<rect x="13.7" y="11.6" fill="#FFFFFF" width="0.5" height="0.5"/>
<rect x="13.7" y="12.1" fill="#FFFFFF" width="0.5" height="0.5"/>
<rect x="13.7" y="12.6" fill="#FFFFFF" width="0.5" height="0.5"/>
<rect x="13.7" y="13.2" fill="#FFFFFF" width="0.5" height="0.5"/>
<rect x="13.7" y="14.2" fill="#FFFFFF" width="0.5" height="0.5"/>
<rect x="13.7" y="14.7" fill="#FFFFFF" width="0.5" height="0.5"/>
<rect x="13.7" y="15.8" fill="#FFFFFF" width="0.5" height="0.5"/>
<rect x="13.7" y="16.3" fill="#FFFFFF" width="0.5" height="0.5"/>
<rect x="13.7" y="16.8" fill="#FFFFFF" width="0.5" height="0.5"/>
<rect x="13.7" y="18.4" fill="#FFFFFF" width="0.5" height="0.5"/>
<rect x="13.7" y="19.5" fill="#FFFFFF" width="0.5" height="0.5"/>
<rect x="13.7" y="20" fill="#FFFFFF" width="0.5" height="0.5"/>
<rect x="13.2" y="13.7" fill="#FFFFFF" width="0.5" height="0.5"/>
<rect x="13.2" y="15.3" fill="#FFFFFF" width="0.5" height="0.5"/>
<rect x="12.6" y="9.5" fill="#FFFFFF" width="0.5" height="0.5"/>
<rect x="12.6" y="10" fill="#FFFFFF" width="0.5" height="0.5"/>
<rect x="12.6" y="10.5" fill="#FFFFFF" width="0.5" height="0.5"/>
<rect x="12.6" y="11.1" fill="#FFFFFF" width="0.5" height="0.5"/>
<rect x="12.6" y="11.6" fill="#FFFFFF" width="0.5" height="0.5"/>
<rect x="12.6" y="12.1" fill="#FFFFFF" width="0.5" height="0.5"/>
<rect x="12.6" y="12.6" fill="#FFFFFF" width="0.5" height="0.5"/>
<rect x="12.6" y="13.7" fill="#FFFFFF" width="0.5" height="0.5"/>
<rect x="12.6" y="14.7" fill="#FFFFFF" width="0.5" height="0.5"/>
<rect x="12.6" y="15.8" fill="#FFFFFF" width="0.5" height="0.5"/>
<rect x="12.6" y="16.8" fill="#FFFFFF" width="0.5" height="0.5"/>
<rect x="12.6" y="17.4" fill="#FFFFFF" width="0.5" height="0.5"/>
<rect x="12.6" y="17.9" fill="#FFFFFF" width="0.5" height="0.5"/>
<rect x="12.6" y="18.4" fill="#FFFFFF" width="0.5" height="0.5"/>
<rect x="12.6" y="18.9" fill="#FFFFFF" width="0.5" height="0.5"/>
<rect x="12.6" y="19.5" fill="#FFFFFF" width="0.5" height="0.5"/>
<rect x="12.6" y="20" fill="#FFFFFF" width="0.5" height="0.5"/>
<rect x="12.1" y="9.5" fill="#FFFFFF" width="0.5" height="0.5"/>
<rect x="12.1" y="12.6" fill="#FFFFFF" width="0.5" height="0.5"/>
<rect x="12.1" y="15.3" fill="#FFFFFF" width="0.5" height="0.5"/>
<rect x="12.1" y="15.8" fill="#FFFFFF" width="0.5" height="0.5"/>
<rect x="12.1" y="16.8" fill="#FFFFFF" width="0.5" height="0.5"/>
<rect x="12.1" y="20" fill="#FFFFFF" width="0.5" height="0.5"/>
<rect x="11.6" y="9.5" fill="#FFFFFF" width="0.5" height="0.5"/>
<rect x="11.6" y="10.5" fill="#FFFFFF" width="0.5" height="0.5"/>
<rect x="11.6" y="11.1" fill="#FFFFFF" width="0.5" height="0.5"/>
<rect x="11.6" y="11.6" fill="#FFFFFF" width="0.5" height="0.5"/>
<rect x="11.6" y="12.6" fill="#FFFFFF" width="0.5" height="0.5"/>
<rect x="11.6" y="14.2" fill="#FFFFFF" width="0.5" height="0.5"/>
<rect x="11.6" y="14.7" fill="#FFFFFF" width="0.5" height="0.5"/>
<rect x="11.6" y="15.8" fill="#FFFFFF" width="0.5" height="0.5"/>
<rect x="11.6" y="16.8" fill="#FFFFFF" width="0.5" height="0.5"/>
<rect x="11.6" y="17.9" fill="#FFFFFF" width="0.5" height="0.5"/>
<rect x="11.6" y="18.4" fill="#FFFFFF" width="0.5" height="0.5"/>
<rect x="11.6" y="18.9" fill="#FFFFFF" width="0.5" height="0.5"/>
<rect x="11.6" y="20" fill="#FFFFFF" width="0.5" height="0.5"/>
<rect x="11.1" y="9.5" fill="#FFFFFF" width="0.5" height="0.5"/>
<rect x="11.1" y="10.5" fill="#FFFFFF" width="0.5" height="0.5"/>
<rect x="11.1" y="11.1" fill="#FFFFFF" width="0.5" height="0.5"/>
<rect x="11.1" y="11.6" fill="#FFFFFF" width="0.5" height="0.5"/>
<rect x="11.1" y="12.6" fill="#FFFFFF" width="0.5" height="0.5"/>
<rect x="11.1" y="13.7" fill="#FFFFFF" width="0.5" height="0.5"/>
<rect x="11.1" y="14.2" fill="#FFFFFF" width="0.5" height="0.5"/>
<rect x="11.1" y="14.7" fill="#FFFFFF" width="0.5" height="0.5"/>
<rect x="11.1" y="15.3" fill="#FFFFFF" width="0.5" height="0.5"/>
<rect x="11.1" y="15.8" fill="#FFFFFF" width="0.5" height="0.5"/>
<rect x="11.1" y="16.8" fill="#FFFFFF" width="0.5" height="0.5"/>
<rect x="11.1" y="17.9" fill="#FFFFFF" width="0.5" height="0.5"/>
<rect x="11.1" y="18.4" fill="#FFFFFF" width="0.5" height="0.5"/>
<rect x="11.1" y="18.9" fill="#FFFFFF" width="0.5" height="0.5"/>
<rect x="11.1" y="20" fill="#FFFFFF" width="0.5" height="0.5"/>
<rect x="10.5" y="9.5" fill="#FFFFFF" width="0.5" height="0.5"/>
<rect x="10.5" y="10.5" fill="#FFFFFF" width="0.5" height="0.5"/>
<rect x="10.5" y="11.1" fill="#FFFFFF" width="0.5" height="0.5"/>
<rect x="10.5" y="11.6" fill="#FFFFFF" width="0.5" height="0.5"/>
<rect x="10.5" y="12.6" fill="#FFFFFF" width="0.5" height="0.5"/>
<rect x="10.5" y="15.3" fill="#FFFFFF" width="0.5" height="0.5"/>
<rect x="10.5" y="16.8" fill="#FFFFFF" width="0.5" height="0.5"/>
<rect x="10.5" y="17.9" fill="#FFFFFF" width="0.5" height="0.5"/>
<rect x="10.5" y="18.4" fill="#FFFFFF" width="0.5" height="0.5"/>
<rect x="10.5" y="18.9" fill="#FFFFFF" width="0.5" height="0.5"/>
<rect x="10.5" y="20" fill="#FFFFFF" width="0.5" height="0.5"/>
<rect x="10" y="9.5" fill="#FFFFFF" width="0.5" height="0.5"/>
<rect x="10" y="12.6" fill="#FFFFFF" width="0.5" height="0.5"/>
<rect x="10" y="13.7" fill="#FFFFFF" width="0.5" height="0.5"/>
<rect x="10" y="15.3" fill="#FFFFFF" width="0.5" height="0.5"/>
<rect x="10" y="16.8" fill="#FFFFFF" width="0.5" height="0.5"/>
<rect x="10" y="20" fill="#FFFFFF" width="0.5" height="0.5"/>
<rect x="9.5" y="9.5" fill="#FFFFFF" width="0.5" height="0.5"/>
<rect x="9.5" y="10" fill="#FFFFFF" width="0.5" height="0.5"/>
<rect x="9.5" y="10.5" fill="#FFFFFF" width="0.5" height="0.5"/>
<rect x="9.5" y="11.1" fill="#FFFFFF" width="0.5" height="0.5"/>
<rect x="9.5" y="11.6" fill="#FFFFFF" width="0.5" height="0.5"/>
<rect x="9.5" y="12.1" fill="#FFFFFF" width="0.5" height="0.5"/>
<rect x="9.5" y="12.6" fill="#FFFFFF" width="0.5" height="0.5"/>
<rect x="9.5" y="13.7" fill="#FFFFFF" width="0.5" height="0.5"/>
<rect x="9.5" y="14.7" fill="#FFFFFF" width="0.5" height="0.5"/>
<rect x="9.5" y="16.8" fill="#FFFFFF" width="0.5" height="0.5"/>
<rect x="9.5" y="17.4" fill="#FFFFFF" width="0.5" height="0.5"/>
<rect x="9.5" y="17.9" fill="#FFFFFF" width="0.5" height="0.5"/>
<rect x="9.5" y="18.4" fill="#FFFFFF" width="0.5" height="0.5"/>
<rect x="9.5" y="18.9" fill="#FFFFFF" width="0.5" height="0.5"/>
<rect x="9.5" y="19.5" fill="#FFFFFF" width="0.5" height="0.5"/>
<rect x="9.5" y="20" fill="#FFFFFF" width="0.5" height="0.5"/>
</svg>
