<?xml version="1.0" encoding="utf-8"?>
<!-- Generator: Adobe Illustrator 18.0.0, SVG Export Plug-In . SVG Version: 6.00 Build 0)  -->
<!DOCTYPE svg PUBLIC "-//W3C//DTD SVG 1.1//EN" "http://www.w3.org/Graphics/SVG/1.1/DTD/svg11.dtd">
<svg version="1.1" xmlns="http://www.w3.org/2000/svg" xmlns:xlink="http://www.w3.org/1999/xlink" x="0px" y="0px"
	 viewBox="0 0 30 30" enable-background="new 0 0 30 30" xml:space="preserve">
<g id="checkin" display="none">
	<path id="CheckIn" display="inline" fill="#FFFFFF" d="M28,27.7l-2.5,1.6C24,30.4,17.2,31.6,8,20.5C-0.9,9.7,1.6,3.8,2.8,2.4l2-2.1
		C5.3-0.1,6-0.1,6.4,0.4l5.4,6.4l0,0c0.4,0.5,0.4,1.2-0.1,1.6l0,0l-2.4,1.7c-0.9,0.9-0.1,2.4,0.8,3.8l4.6,5.4c2.1,2.1,3.3,3,4.3,2.3
		l2-2.2c0.5-0.4,1.2-0.4,1.6,0.1l5.4,6.4l0,0C28.6,26.5,28.5,27.2,28,27.7z"/>
</g>
<g id="scanqr" display="none">
	<path display="inline" fill="#FFFFFF" d="M21.3,0H8.7C7.5,0,6.5,1,6.5,2.2v25.6c0,1.2,1,2.2,2.2,2.2h12.6c1.2,0,2.2-1,2.2-2.2V2.2
		C23.5,1,22.5,0,21.3,0z M15,29c-0.8,0-1.4-0.6-1.4-1.4s0.6-1.4,1.4-1.4c0.8,0,1.4,0.6,1.4,1.4S15.8,29,15,29z M22.5,25.9h-15V2.3
		h15V25.9z M16.9,1.6H13V1.2h3.9V1.6z M15.2,0.7c0,0.1-0.1,0.2-0.2,0.2c-0.1,0-0.2-0.1-0.2-0.2s0.1-0.2,0.2-0.2
		C15.1,0.4,15.2,0.5,15.2,0.7z"/>
	<rect x="20" y="9.5" display="inline" fill="#FFFFFF" width="0.5" height="0.5"/>
	<rect x="20" y="10" display="inline" fill="#FFFFFF" width="0.5" height="0.5"/>
	<rect x="20" y="10.5" display="inline" fill="#FFFFFF" width="0.5" height="0.5"/>
	<rect x="20" y="11.1" display="inline" fill="#FFFFFF" width="0.5" height="0.5"/>
	<rect x="20" y="11.6" display="inline" fill="#FFFFFF" width="0.5" height="0.5"/>
	<rect x="20" y="12.1" display="inline" fill="#FFFFFF" width="0.5" height="0.5"/>
	<rect x="20" y="12.6" display="inline" fill="#FFFFFF" width="0.5" height="0.5"/>
	<rect x="20" y="14.2" display="inline" fill="#FFFFFF" width="0.5" height="0.5"/>
	<rect x="20" y="14.7" display="inline" fill="#FFFFFF" width="0.5" height="0.5"/>
	<rect x="20" y="15.3" display="inline" fill="#FFFFFF" width="0.5" height="0.5"/>
	<rect x="20" y="16.3" display="inline" fill="#FFFFFF" width="0.5" height="0.5"/>
	<rect x="20" y="17.9" display="inline" fill="#FFFFFF" width="0.5" height="0.5"/>
	<rect x="20" y="18.4" display="inline" fill="#FFFFFF" width="0.5" height="0.5"/>
	<rect x="20" y="18.9" display="inline" fill="#FFFFFF" width="0.5" height="0.5"/>
	<rect x="19.5" y="9.5" display="inline" fill="#FFFFFF" width="0.5" height="0.5"/>
	<rect x="19.5" y="12.6" display="inline" fill="#FFFFFF" width="0.5" height="0.5"/>
	<rect x="19.5" y="13.7" display="inline" fill="#FFFFFF" width="0.5" height="0.5"/>
	<rect x="19.5" y="15.3" display="inline" fill="#FFFFFF" width="0.5" height="0.5"/>
	<rect x="19.5" y="16.8" display="inline" fill="#FFFFFF" width="0.5" height="0.5"/>
	<rect x="19.5" y="17.9" display="inline" fill="#FFFFFF" width="0.5" height="0.5"/>
	<rect x="19.5" y="20" display="inline" fill="#FFFFFF" width="0.5" height="0.5"/>
	<rect x="18.9" y="9.5" display="inline" fill="#FFFFFF" width="0.5" height="0.5"/>
	<rect x="18.9" y="10.5" display="inline" fill="#FFFFFF" width="0.5" height="0.5"/>
	<rect x="18.9" y="11.1" display="inline" fill="#FFFFFF" width="0.5" height="0.5"/>
	<rect x="18.9" y="11.6" display="inline" fill="#FFFFFF" width="0.5" height="0.5"/>
	<rect x="18.9" y="12.6" display="inline" fill="#FFFFFF" width="0.5" height="0.5"/>
	<rect x="18.9" y="13.7" display="inline" fill="#FFFFFF" width="0.5" height="0.5"/>
	<rect x="18.9" y="14.7" display="inline" fill="#FFFFFF" width="0.5" height="0.5"/>
	<rect x="18.9" y="16.8" display="inline" fill="#FFFFFF" width="0.5" height="0.5"/>
	<rect x="18.9" y="18.9" display="inline" fill="#FFFFFF" width="0.5" height="0.5"/>
	<rect x="18.4" y="9.5" display="inline" fill="#FFFFFF" width="0.5" height="0.5"/>
	<rect x="18.4" y="10.5" display="inline" fill="#FFFFFF" width="0.5" height="0.5"/>
	<rect x="18.4" y="11.1" display="inline" fill="#FFFFFF" width="0.5" height="0.5"/>
	<rect x="18.4" y="11.6" display="inline" fill="#FFFFFF" width="0.5" height="0.5"/>
	<rect x="18.4" y="12.6" display="inline" fill="#FFFFFF" width="0.5" height="0.5"/>
	<rect x="18.4" y="15.3" display="inline" fill="#FFFFFF" width="0.5" height="0.5"/>
	<rect x="18.4" y="15.8" display="inline" fill="#FFFFFF" width="0.5" height="0.5"/>
	<rect x="18.4" y="16.8" display="inline" fill="#FFFFFF" width="0.5" height="0.5"/>
	<rect x="18.4" y="17.9" display="inline" fill="#FFFFFF" width="0.5" height="0.5"/>
	<rect x="18.4" y="19.5" display="inline" fill="#FFFFFF" width="0.5" height="0.5"/>
	<rect x="17.9" y="9.5" display="inline" fill="#FFFFFF" width="0.5" height="0.5"/>
	<rect x="17.9" y="10.5" display="inline" fill="#FFFFFF" width="0.5" height="0.5"/>
	<rect x="17.9" y="11.1" display="inline" fill="#FFFFFF" width="0.5" height="0.5"/>
	<rect x="17.9" y="11.6" display="inline" fill="#FFFFFF" width="0.5" height="0.5"/>
	<rect x="17.9" y="12.6" display="inline" fill="#FFFFFF" width="0.5" height="0.5"/>
	<rect x="17.9" y="13.7" display="inline" fill="#FFFFFF" width="0.5" height="0.5"/>
	<rect x="17.9" y="14.2" display="inline" fill="#FFFFFF" width="0.5" height="0.5"/>
	<rect x="17.9" y="15.3" display="inline" fill="#FFFFFF" width="0.5" height="0.5"/>
	<rect x="17.9" y="16.8" display="inline" fill="#FFFFFF" width="0.5" height="0.5"/>
	<rect x="17.9" y="17.4" display="inline" fill="#FFFFFF" width="0.5" height="0.5"/>
	<rect x="17.9" y="17.9" display="inline" fill="#FFFFFF" width="0.5" height="0.5"/>
	<rect x="17.9" y="18.4" display="inline" fill="#FFFFFF" width="0.5" height="0.5"/>
	<rect x="17.9" y="18.9" display="inline" fill="#FFFFFF" width="0.5" height="0.5"/>
	<rect x="17.4" y="9.5" display="inline" fill="#FFFFFF" width="0.5" height="0.5"/>
	<rect x="17.4" y="12.6" display="inline" fill="#FFFFFF" width="0.5" height="0.5"/>
	<rect x="17.4" y="13.7" display="inline" fill="#FFFFFF" width="0.5" height="0.5"/>
	<rect x="17.4" y="14.7" display="inline" fill="#FFFFFF" width="0.5" height="0.5"/>
	<rect x="17.4" y="15.8" display="inline" fill="#FFFFFF" width="0.5" height="0.5"/>
	<rect x="17.4" y="16.3" display="inline" fill="#FFFFFF" width="0.5" height="0.5"/>
	<rect x="17.4" y="17.9" display="inline" fill="#FFFFFF" width="0.5" height="0.5"/>
	<rect x="17.4" y="18.4" display="inline" fill="#FFFFFF" width="0.5" height="0.5"/>
	<rect x="17.4" y="19.5" display="inline" fill="#FFFFFF" width="0.5" height="0.5"/>
	<rect x="16.8" y="9.5" display="inline" fill="#FFFFFF" width="0.5" height="0.5"/>
	<rect x="16.8" y="10" display="inline" fill="#FFFFFF" width="0.5" height="0.5"/>
	<rect x="16.8" y="10.5" display="inline" fill="#FFFFFF" width="0.5" height="0.5"/>
	<rect x="16.8" y="11.1" display="inline" fill="#FFFFFF" width="0.5" height="0.5"/>
	<rect x="16.8" y="11.6" display="inline" fill="#FFFFFF" width="0.5" height="0.5"/>
	<rect x="16.8" y="12.1" display="inline" fill="#FFFFFF" width="0.5" height="0.5"/>
	<rect x="16.8" y="12.6" display="inline" fill="#FFFFFF" width="0.5" height="0.5"/>
	<rect x="16.8" y="13.7" display="inline" fill="#FFFFFF" width="0.5" height="0.5"/>
	<rect x="16.8" y="15.3" display="inline" fill="#FFFFFF" width="0.5" height="0.5"/>
	<rect x="16.8" y="16.8" display="inline" fill="#FFFFFF" width="0.5" height="0.5"/>
	<rect x="16.8" y="18.4" display="inline" fill="#FFFFFF" width="0.5" height="0.5"/>
	<rect x="16.8" y="20" display="inline" fill="#FFFFFF" width="0.5" height="0.5"/>
	<rect x="16.3" y="15.8" display="inline" fill="#FFFFFF" width="0.5" height="0.5"/>
	<rect x="16.3" y="16.3" display="inline" fill="#FFFFFF" width="0.5" height="0.5"/>
	<rect x="16.3" y="16.8" display="inline" fill="#FFFFFF" width="0.5" height="0.5"/>
	<rect x="16.3" y="18.9" display="inline" fill="#FFFFFF" width="0.5" height="0.5"/>
	<rect x="15.8" y="11.1" display="inline" fill="#FFFFFF" width="0.5" height="0.5"/>
	<rect x="15.8" y="12.6" display="inline" fill="#FFFFFF" width="0.5" height="0.5"/>
	<rect x="15.8" y="13.7" display="inline" fill="#FFFFFF" width="0.5" height="0.5"/>
	<rect x="15.8" y="14.2" display="inline" fill="#FFFFFF" width="0.5" height="0.5"/>
	<rect x="15.8" y="14.7" display="inline" fill="#FFFFFF" width="0.5" height="0.5"/>
	<rect x="15.8" y="15.3" display="inline" fill="#FFFFFF" width="0.5" height="0.5"/>
	<rect x="15.8" y="15.8" display="inline" fill="#FFFFFF" width="0.5" height="0.5"/>
	<rect x="15.8" y="16.3" display="inline" fill="#FFFFFF" width="0.5" height="0.5"/>
	<rect x="15.8" y="16.8" display="inline" fill="#FFFFFF" width="0.5" height="0.5"/>
	<rect x="15.8" y="17.9" display="inline" fill="#FFFFFF" width="0.5" height="0.5"/>
	<rect x="15.8" y="18.4" display="inline" fill="#FFFFFF" width="0.5" height="0.5"/>
	<rect x="15.8" y="18.9" display="inline" fill="#FFFFFF" width="0.5" height="0.5"/>
	<rect x="15.8" y="19.5" display="inline" fill="#FFFFFF" width="0.5" height="0.5"/>
	<rect x="15.3" y="10.5" display="inline" fill="#FFFFFF" width="0.5" height="0.5"/>
	<rect x="15.3" y="13.2" display="inline" fill="#FFFFFF" width="0.5" height="0.5"/>
	<rect x="15.3" y="18.4" display="inline" fill="#FFFFFF" width="0.5" height="0.5"/>
	<rect x="15.3" y="18.9" display="inline" fill="#FFFFFF" width="0.5" height="0.5"/>
	<rect x="15.3" y="19.5" display="inline" fill="#FFFFFF" width="0.5" height="0.5"/>
	<rect x="14.7" y="10.5" display="inline" fill="#FFFFFF" width="0.5" height="0.5"/>
	<rect x="14.7" y="11.1" display="inline" fill="#FFFFFF" width="0.5" height="0.5"/>
	<rect x="14.7" y="11.6" display="inline" fill="#FFFFFF" width="0.5" height="0.5"/>
	<rect x="14.7" y="12.6" display="inline" fill="#FFFFFF" width="0.5" height="0.5"/>
	<rect x="14.7" y="13.2" display="inline" fill="#FFFFFF" width="0.5" height="0.5"/>
	<rect x="14.7" y="13.7" display="inline" fill="#FFFFFF" width="0.5" height="0.5"/>
	<rect x="14.7" y="14.7" display="inline" fill="#FFFFFF" width="0.5" height="0.5"/>
	<rect x="14.7" y="15.8" display="inline" fill="#FFFFFF" width="0.5" height="0.5"/>
	<rect x="14.7" y="16.3" display="inline" fill="#FFFFFF" width="0.5" height="0.5"/>
	<rect x="14.7" y="16.8" display="inline" fill="#FFFFFF" width="0.5" height="0.5"/>
	<rect x="14.7" y="17.4" display="inline" fill="#FFFFFF" width="0.5" height="0.5"/>
	<rect x="14.7" y="18.4" display="inline" fill="#FFFFFF" width="0.5" height="0.5"/>
	<rect x="14.2" y="9.5" display="inline" fill="#FFFFFF" width="0.5" height="0.5"/>
	<rect x="14.2" y="10" display="inline" fill="#FFFFFF" width="0.5" height="0.5"/>
	<rect x="14.2" y="10.5" display="inline" fill="#FFFFFF" width="0.5" height="0.5"/>
	<rect x="14.2" y="11.1" display="inline" fill="#FFFFFF" width="0.5" height="0.5"/>
	<rect x="14.2" y="11.6" display="inline" fill="#FFFFFF" width="0.5" height="0.5"/>
	<rect x="14.2" y="12.1" display="inline" fill="#FFFFFF" width="0.5" height="0.5"/>
	<rect x="14.2" y="13.2" display="inline" fill="#FFFFFF" width="0.5" height="0.5"/>
	<rect x="14.2" y="14.7" display="inline" fill="#FFFFFF" width="0.5" height="0.5"/>
	<rect x="14.2" y="16.3" display="inline" fill="#FFFFFF" width="0.5" height="0.5"/>
	<rect x="14.2" y="17.4" display="inline" fill="#FFFFFF" width="0.5" height="0.5"/>
	<rect x="14.2" y="17.9" display="inline" fill="#FFFFFF" width="0.5" height="0.5"/>
	<rect x="14.2" y="18.4" display="inline" fill="#FFFFFF" width="0.5" height="0.5"/>
	<rect x="14.2" y="18.9" display="inline" fill="#FFFFFF" width="0.5" height="0.5"/>
	<rect x="14.2" y="19.5" display="inline" fill="#FFFFFF" width="0.5" height="0.5"/>
	<rect x="13.7" y="10" display="inline" fill="#FFFFFF" width="0.5" height="0.5"/>
	<rect x="13.7" y="10.5" display="inline" fill="#FFFFFF" width="0.5" height="0.5"/>
	<rect x="13.7" y="11.6" display="inline" fill="#FFFFFF" width="0.5" height="0.5"/>
	<rect x="13.7" y="12.1" display="inline" fill="#FFFFFF" width="0.5" height="0.5"/>
	<rect x="13.7" y="12.6" display="inline" fill="#FFFFFF" width="0.5" height="0.5"/>
	<rect x="13.7" y="13.2" display="inline" fill="#FFFFFF" width="0.5" height="0.5"/>
	<rect x="13.7" y="14.2" display="inline" fill="#FFFFFF" width="0.5" height="0.5"/>
	<rect x="13.7" y="14.7" display="inline" fill="#FFFFFF" width="0.5" height="0.5"/>
	<rect x="13.7" y="15.8" display="inline" fill="#FFFFFF" width="0.5" height="0.5"/>
	<rect x="13.7" y="16.3" display="inline" fill="#FFFFFF" width="0.5" height="0.5"/>
	<rect x="13.7" y="16.8" display="inline" fill="#FFFFFF" width="0.5" height="0.5"/>
	<rect x="13.7" y="18.4" display="inline" fill="#FFFFFF" width="0.5" height="0.5"/>
	<rect x="13.7" y="19.5" display="inline" fill="#FFFFFF" width="0.5" height="0.5"/>
	<rect x="13.7" y="20" display="inline" fill="#FFFFFF" width="0.5" height="0.5"/>
	<rect x="13.2" y="13.7" display="inline" fill="#FFFFFF" width="0.5" height="0.5"/>
	<rect x="13.2" y="15.3" display="inline" fill="#FFFFFF" width="0.5" height="0.5"/>
	<rect x="12.6" y="9.5" display="inline" fill="#FFFFFF" width="0.5" height="0.5"/>
	<rect x="12.6" y="10" display="inline" fill="#FFFFFF" width="0.5" height="0.5"/>
	<rect x="12.6" y="10.5" display="inline" fill="#FFFFFF" width="0.5" height="0.5"/>
	<rect x="12.6" y="11.1" display="inline" fill="#FFFFFF" width="0.5" height="0.5"/>
	<rect x="12.6" y="11.6" display="inline" fill="#FFFFFF" width="0.5" height="0.5"/>
	<rect x="12.6" y="12.1" display="inline" fill="#FFFFFF" width="0.5" height="0.5"/>
	<rect x="12.6" y="12.6" display="inline" fill="#FFFFFF" width="0.5" height="0.5"/>
	<rect x="12.6" y="13.7" display="inline" fill="#FFFFFF" width="0.5" height="0.5"/>
	<rect x="12.6" y="14.7" display="inline" fill="#FFFFFF" width="0.5" height="0.5"/>
	<rect x="12.6" y="15.8" display="inline" fill="#FFFFFF" width="0.5" height="0.5"/>
	<rect x="12.6" y="16.8" display="inline" fill="#FFFFFF" width="0.5" height="0.5"/>
	<rect x="12.6" y="17.4" display="inline" fill="#FFFFFF" width="0.5" height="0.5"/>
	<rect x="12.6" y="17.9" display="inline" fill="#FFFFFF" width="0.5" height="0.5"/>
	<rect x="12.6" y="18.4" display="inline" fill="#FFFFFF" width="0.5" height="0.5"/>
	<rect x="12.6" y="18.9" display="inline" fill="#FFFFFF" width="0.5" height="0.5"/>
	<rect x="12.6" y="19.5" display="inline" fill="#FFFFFF" width="0.5" height="0.5"/>
	<rect x="12.6" y="20" display="inline" fill="#FFFFFF" width="0.5" height="0.5"/>
	<rect x="12.1" y="9.5" display="inline" fill="#FFFFFF" width="0.5" height="0.5"/>
	<rect x="12.1" y="12.6" display="inline" fill="#FFFFFF" width="0.5" height="0.5"/>
	<rect x="12.1" y="15.3" display="inline" fill="#FFFFFF" width="0.5" height="0.5"/>
	<rect x="12.1" y="15.8" display="inline" fill="#FFFFFF" width="0.5" height="0.5"/>
	<rect x="12.1" y="16.8" display="inline" fill="#FFFFFF" width="0.5" height="0.5"/>
	<rect x="12.1" y="20" display="inline" fill="#FFFFFF" width="0.5" height="0.5"/>
	<rect x="11.6" y="9.5" display="inline" fill="#FFFFFF" width="0.5" height="0.5"/>
	<rect x="11.6" y="10.5" display="inline" fill="#FFFFFF" width="0.5" height="0.5"/>
	<rect x="11.6" y="11.1" display="inline" fill="#FFFFFF" width="0.5" height="0.5"/>
	<rect x="11.6" y="11.6" display="inline" fill="#FFFFFF" width="0.5" height="0.5"/>
	<rect x="11.6" y="12.6" display="inline" fill="#FFFFFF" width="0.5" height="0.5"/>
	<rect x="11.6" y="14.2" display="inline" fill="#FFFFFF" width="0.5" height="0.5"/>
	<rect x="11.6" y="14.7" display="inline" fill="#FFFFFF" width="0.5" height="0.5"/>
	<rect x="11.6" y="15.8" display="inline" fill="#FFFFFF" width="0.5" height="0.5"/>
	<rect x="11.6" y="16.8" display="inline" fill="#FFFFFF" width="0.5" height="0.5"/>
	<rect x="11.6" y="17.9" display="inline" fill="#FFFFFF" width="0.5" height="0.5"/>
	<rect x="11.6" y="18.4" display="inline" fill="#FFFFFF" width="0.5" height="0.5"/>
	<rect x="11.6" y="18.9" display="inline" fill="#FFFFFF" width="0.5" height="0.5"/>
	<rect x="11.6" y="20" display="inline" fill="#FFFFFF" width="0.5" height="0.5"/>
	<rect x="11.1" y="9.5" display="inline" fill="#FFFFFF" width="0.5" height="0.5"/>
	<rect x="11.1" y="10.5" display="inline" fill="#FFFFFF" width="0.5" height="0.5"/>
	<rect x="11.1" y="11.1" display="inline" fill="#FFFFFF" width="0.5" height="0.5"/>
	<rect x="11.1" y="11.6" display="inline" fill="#FFFFFF" width="0.5" height="0.5"/>
	<rect x="11.1" y="12.6" display="inline" fill="#FFFFFF" width="0.5" height="0.5"/>
	<rect x="11.1" y="13.7" display="inline" fill="#FFFFFF" width="0.5" height="0.5"/>
	<rect x="11.1" y="14.2" display="inline" fill="#FFFFFF" width="0.5" height="0.5"/>
	<rect x="11.1" y="14.7" display="inline" fill="#FFFFFF" width="0.5" height="0.5"/>
	<rect x="11.1" y="15.3" display="inline" fill="#FFFFFF" width="0.5" height="0.5"/>
	<rect x="11.1" y="15.8" display="inline" fill="#FFFFFF" width="0.5" height="0.5"/>
	<rect x="11.1" y="16.8" display="inline" fill="#FFFFFF" width="0.5" height="0.5"/>
	<rect x="11.1" y="17.9" display="inline" fill="#FFFFFF" width="0.5" height="0.5"/>
	<rect x="11.1" y="18.4" display="inline" fill="#FFFFFF" width="0.5" height="0.5"/>
	<rect x="11.1" y="18.9" display="inline" fill="#FFFFFF" width="0.5" height="0.5"/>
	<rect x="11.1" y="20" display="inline" fill="#FFFFFF" width="0.5" height="0.5"/>
	<rect x="10.5" y="9.5" display="inline" fill="#FFFFFF" width="0.5" height="0.5"/>
	<rect x="10.5" y="10.5" display="inline" fill="#FFFFFF" width="0.5" height="0.5"/>
	<rect x="10.5" y="11.1" display="inline" fill="#FFFFFF" width="0.5" height="0.5"/>
	<rect x="10.5" y="11.6" display="inline" fill="#FFFFFF" width="0.5" height="0.5"/>
	<rect x="10.5" y="12.6" display="inline" fill="#FFFFFF" width="0.5" height="0.5"/>
	<rect x="10.5" y="15.3" display="inline" fill="#FFFFFF" width="0.5" height="0.5"/>
	<rect x="10.5" y="16.8" display="inline" fill="#FFFFFF" width="0.5" height="0.5"/>
	<rect x="10.5" y="17.9" display="inline" fill="#FFFFFF" width="0.5" height="0.5"/>
	<rect x="10.5" y="18.4" display="inline" fill="#FFFFFF" width="0.5" height="0.5"/>
	<rect x="10.5" y="18.9" display="inline" fill="#FFFFFF" width="0.5" height="0.5"/>
	<rect x="10.5" y="20" display="inline" fill="#FFFFFF" width="0.5" height="0.5"/>
	<rect x="10" y="9.5" display="inline" fill="#FFFFFF" width="0.5" height="0.5"/>
	<rect x="10" y="12.6" display="inline" fill="#FFFFFF" width="0.5" height="0.5"/>
	<rect x="10" y="13.7" display="inline" fill="#FFFFFF" width="0.5" height="0.5"/>
	<rect x="10" y="15.3" display="inline" fill="#FFFFFF" width="0.5" height="0.5"/>
	<rect x="10" y="16.8" display="inline" fill="#FFFFFF" width="0.5" height="0.5"/>
	<rect x="10" y="20" display="inline" fill="#FFFFFF" width="0.5" height="0.5"/>
	<rect x="9.5" y="9.5" display="inline" fill="#FFFFFF" width="0.5" height="0.5"/>
	<rect x="9.5" y="10" display="inline" fill="#FFFFFF" width="0.5" height="0.5"/>
	<rect x="9.5" y="10.5" display="inline" fill="#FFFFFF" width="0.5" height="0.5"/>
	<rect x="9.5" y="11.1" display="inline" fill="#FFFFFF" width="0.5" height="0.5"/>
	<rect x="9.5" y="11.6" display="inline" fill="#FFFFFF" width="0.5" height="0.5"/>
	<rect x="9.5" y="12.1" display="inline" fill="#FFFFFF" width="0.5" height="0.5"/>
	<rect x="9.5" y="12.6" display="inline" fill="#FFFFFF" width="0.5" height="0.5"/>
	<rect x="9.5" y="13.7" display="inline" fill="#FFFFFF" width="0.5" height="0.5"/>
	<rect x="9.5" y="14.7" display="inline" fill="#FFFFFF" width="0.5" height="0.5"/>
	<rect x="9.5" y="16.8" display="inline" fill="#FFFFFF" width="0.5" height="0.5"/>
	<rect x="9.5" y="17.4" display="inline" fill="#FFFFFF" width="0.5" height="0.5"/>
	<rect x="9.5" y="17.9" display="inline" fill="#FFFFFF" width="0.5" height="0.5"/>
	<rect x="9.5" y="18.4" display="inline" fill="#FFFFFF" width="0.5" height="0.5"/>
	<rect x="9.5" y="18.9" display="inline" fill="#FFFFFF" width="0.5" height="0.5"/>
	<rect x="9.5" y="19.5" display="inline" fill="#FFFFFF" width="0.5" height="0.5"/>
	<rect x="9.5" y="20" display="inline" fill="#FFFFFF" width="0.5" height="0.5"/>
</g>
<g id="settings">
	<g>
		<path fill="#FFFFFF" d="M18.4,17.4c0,0,2.9-1.1,2.9-1.3v-2.3c0-0.2-2.9-1.2-2.9-1.2l-0.5-1.3c0,0,1.3-2.8,1.1-2.9l-1.7-1.6
			c-0.1-0.1-2.9,1.2-2.9,1.2l-1.3-0.5c0,0-1.2-2.9-1.3-2.9H9.4c-0.2,0-1.2,2.9-1.2,2.9L6.9,8c0,0-2.9-1.2-3-1.1L2.3,8.5
			c-0.1,0.1,1.2,2.9,1.2,2.9l-0.5,1.3c0,0-2.9,1.1-2.9,1.3v2.3c0,0.2,2.9,1.2,2.9,1.2l0.5,1.3c0,0-1.3,2.8-1.1,2.9L4,23.2
			c0.1,0.1,2.9-1.2,2.9-1.2l1.3,0.5c0,0,1.2,2.9,1.3,2.9h2.3c0.2,0,1.2-2.9,1.2-2.9l1.3-0.5c0,0,2.9,1.2,3,1.1l1.7-1.6
			c0.1-0.1-1.2-2.9-1.2-2.9L18.4,17.4z M10.7,18.3c-1.9,0-3.4-1.5-3.4-3.3c0-1.8,1.5-3.3,3.4-3.3c1.9,0,3.4,1.5,3.4,3.3
			C14.1,16.8,12.6,18.3,10.7,18.3z"/>
		<path fill="#FFFFFF" d="M28.8,19.8l-0.1-0.7c0,0,0.9-1.2,0.9-1.3l-0.6-1c0-0.1-1.5,0.2-1.5,0.2L27,16.8c0,0-0.2-1.5-0.3-1.5
			L25.7,15c-0.1,0-0.9,1.2-0.9,1.2l-0.7,0.1c0,0-1.2-0.9-1.2-0.9L22,16c-0.1,0,0.2,1.5,0.2,1.5l-0.4,0.5c0,0-1.5,0.2-1.5,0.3
			L20,19.4c0,0.1,1.2,0.9,1.2,0.9l0.1,0.7c0,0-0.9,1.2-0.9,1.3l0.6,1c0,0.1,1.5-0.2,1.5-0.2l0.5,0.4c0,0,0.2,1.5,0.3,1.5l1.1,0.3
			c0.1,0,0.9-1.2,0.9-1.2l0.7-0.1c0,0,1.2,0.9,1.2,0.9l0.9-0.6c0.1,0-0.2-1.5-0.2-1.5l0.4-0.5c0,0,1.5-0.2,1.5-0.3l0.3-1.1
			C30,20.6,28.8,19.8,28.8,19.8z M26.6,20.5c-0.2,0.9-1.1,1.4-1.9,1.2c-0.9-0.2-1.4-1.1-1.2-2c0.2-0.9,1.1-1.4,1.9-1.2
			C26.3,18.7,26.8,19.6,26.6,20.5z"/>
	</g>
</g>
<g id="help" display="none">
	<path display="inline" fill="#FFFFFF" d="M15,0C6.7,0,0,6.7,0,15c0,8.3,6.7,15,15,15c8.3,0,15-6.7,15-15C30,6.7,23.3,0,15,0z
		 M15,28.5c-7.5,0-13.5-6-13.5-13.5c0-7.5,6-13.5,13.5-13.5c7.5,0,13.5,6,13.5,13.5C28.5,22.5,22.5,28.5,15,28.5z"/>
	<g display="inline">
		<polygon fill="#FFFFFF" points="17.5,10.6 12.8,10.6 12.8,10.7 11,10.7 11,13.4 12.8,13.4 12.8,23.3 10.9,23.3 10.9,26 12.8,26 
			12.8,26 17.5,26 17.5,26 19.1,26 19.1,23.3 17.5,23.3 		"/>
		<path fill="#FFFFFF" d="M15.1,8.8c1.6,0,2.6-1.1,2.6-2.4c0-1.3-1-2.4-2.5-2.4c-1.5,0-2.5,1-2.5,2.4C12.7,7.7,13.6,8.8,15.1,8.8z"
			/>
	</g>
</g>
<g id="logout" display="none">
	<rect fill="#C12E2A" width="30" height="30"/>
	<path display="inline" fill="#C12E2A" d="M13.6,5.8"/>
	<path display="inline" fill="none" stroke="#FFFFFF" stroke-width="1.5" stroke-linecap="round" stroke-miterlimit="10" d="
		M17.5,5.3c4.3,1.1,7.6,5,7.6,9.7c0,5.5-4.5,10-10,10S5,20.5,5,15c0-4.7,3.2-8.6,7.5-9.7"/>
	
		<line display="inline" fill="none" stroke="#FFFFFF" stroke-width="2" stroke-linecap="round" stroke-miterlimit="10" x1="15" y1="14.1" x2="15" y2="2.3"/>
	<path display="inline" fill="none" stroke="#000000" stroke-width="1.5" stroke-linecap="round" stroke-miterlimit="10" d="M14,1.9
		"/>
	<path display="inline" fill="none" stroke="#000000" stroke-width="1.5" stroke-linecap="round" stroke-miterlimit="10" d="M14,7.5
		"/>
	<path display="inline" fill="none" stroke="#000000" stroke-width="1.5" stroke-linecap="round" stroke-miterlimit="10" d="M16,1.9
		"/>
	<path display="inline" fill="none" stroke="#000000" stroke-width="1.5" stroke-linecap="round" stroke-miterlimit="10" d="M16,7.5
		"/>
	<path display="inline" fill="none" stroke="#000000" stroke-width="3" stroke-linecap="round" stroke-miterlimit="10" d="M14,3.3"
		/>
	<path display="inline" fill="none" stroke="#000000" stroke-width="3" stroke-linecap="round" stroke-miterlimit="10" d="M14,15.1"
		/>
	<path display="inline" fill="none" stroke="#000000" stroke-width="3" stroke-linecap="round" stroke-miterlimit="10" d="M16,3.3"
		/>
	<path display="inline" fill="none" stroke="#000000" stroke-width="3" stroke-linecap="round" stroke-miterlimit="10" d="M16,15.1"
		/>
</g>
</svg>
